<svg version="1.0" xmlns="http://www.w3.org/2000/svg"
 width="500.000000pt" height="341.000000pt" viewBox="0 0 500.000000 341.000000"
 preserveAspectRatio="xMidYMid meet">

<g transform="translate(0.000000,341.000000) scale(0.100000,-0.100000)"
fill="#000000" stroke="none">
<path d="M1565 1936 c-50 -23 -93 -61 -83 -72 4 -3 25 9 49 26 24 17 62 36 86
42 23 5 40 14 37 19 -9 15 -36 10 -89 -15z"/>
<path d="M1690 1950 c0 -5 4 -10 9 -10 6 0 13 5 16 10 3 6 -1 10 -9 10 -9 0
-16 -4 -16 -10z"/>
<path d="M1730 1940 c0 -5 7 -6 17 -3 11 4 14 3 9 -5 -5 -8 -2 -10 9 -5 13 5
14 7 3 14 -18 12 -38 11 -38 -1z"/>
<path d="M1785 1920 c-4 -6 -3 -10 2 -9 20 3 34 -2 28 -11 -3 -5 -1 -10 4 -10
18 0 12 19 -8 30 -14 7 -22 7 -26 0z"/>
<path d="M3300 1851 l0 -58 -39 19 c-80 39 -161 -13 -161 -105 0 -132 172
-159 219 -34 6 16 11 75 11 133 0 86 -3 104 -15 104 -12 0 -15 -13 -15 -59z
m-29 -80 c75 -75 -4 -184 -106 -145 -21 8 -45 56 -45 89 0 38 50 85 90 85 22
0 41 -9 61 -29z"/>
<path d="M1436 1800 c-57 -142 40 -312 192 -336 48 -7 61 11 15 22 -121 26
-196 113 -196 225 0 30 7 69 15 87 15 29 14 42 -3 42 -4 0 -14 -18 -23 -40z"/>
<path d="M1630 1795 l0 -45 -40 0 -40 0 0 -40 0 -40 40 0 40 0 0 -40 0 -40 40
0 40 0 0 40 0 40 45 0 45 0 0 40 0 40 -45 0 -45 0 0 45 0 45 -40 0 -40 0 0
-45z"/>
<path d="M2212 1819 c-42 -12 -72 -61 -72 -115 0 -102 122 -150 195 -77 28 29
17 47 -13 20 -30 -28 -69 -37 -102 -26 -28 10 -60 52 -60 78 0 6 42 11 104 13
l104 3 -12 34 c-19 59 -80 89 -144 70z m83 -25 c8 -4 22 -19 31 -35 l15 -29
-86 0 c-94 0 -107 11 -59 49 26 21 67 27 99 15z"/>
<path d="M2904 1823 c-35 -7 -75 -57 -81 -100 -14 -109 116 -175 194 -97 35
35 18 52 -18 18 -38 -36 -88 -38 -124 -4 -14 13 -25 34 -25 47 0 23 2 23 101
23 l101 0 -7 28 c-3 15 -14 35 -23 46 -17 18 -74 47 -89 45 -4 -1 -18 -4 -29
-6z m91 -48 c40 -39 32 -45 -60 -45 -92 0 -100 6 -60 45 16 17 35 25 60 25 25
0 44 -8 60 -25z"/>
<path d="M2054 1808 c-12 -5 -27 -21 -33 -34 -14 -31 -15 -184 -1 -184 6 0 10
30 10 69 0 85 12 118 45 131 14 5 25 14 25 20 0 12 -18 12 -46 -2z"/>
<path d="M2451 1803 c-26 -21 -40 -76 -41 -155 0 -45 3 -58 15 -58 12 0 15 16
15 80 0 73 3 83 25 105 30 30 54 31 89 4 24 -19 26 -26 26 -105 0 -68 3 -84
15 -84 12 0 15 16 15 84 0 79 2 86 26 105 15 12 34 21 44 21 10 0 29 -9 44
-21 24 -19 26 -26 26 -105 0 -68 3 -84 15 -84 12 0 15 14 15 70 0 78 -18 133
-48 149 -32 17 -87 13 -113 -8 -24 -19 -25 -19 -48 0 -29 24 -92 25 -120 2z"/>
<path d="M3384 1788 c7 -18 28 -65 45 -104 l32 -70 -21 -48 c-20 -47 -20 -70
-1 -50 5 5 39 76 75 157 44 102 60 147 50 145 -9 -2 -31 -40 -51 -85 -19 -46
-38 -81 -42 -79 -4 3 -22 41 -41 85 -18 45 -40 81 -47 81 -11 0 -11 -6 1 -32z"/>
</g>
</svg>
